<?xml version="1.0" encoding="UTF-8" standalone="no"?>
<svg
   xmlns="http://www.w3.org/2000/svg"
   width="40"
   height="40"
   viewBox="0 0 26.458333 26.458334"
   version="1.1"
   id="svg8">
  <g
     id="layer1">
    <rect
       ry="12.98696"
       y="0.12922287"
       x="0.19383684"
       height="25.973921"
       width="25.973921"
       id="rect1050"
       style="fill:#aadff4;fill-opacity:1;stroke-width:0.0584408" />
    <path
       id="path851-3"
       d="m 14.892774,16.784396 c -0.555585,0.303872 -1.235547,0.308492 -1.758901,0.659627 -1.037905,0.696308 -1.694665,2.275776 -2.345266,3.310989 -0.465673,0.740965 -0.9207344,1.490097 -1.4006042,2.222027 -0.2283997,0.348508 -0.4893791,0.76537 -0.9061827,0.905612 -0.5768177,0.194121 -1.3475786,-0.27132 -1.4834494,-0.856348 -0.078087,-0.336699 0.064688,-0.664441 0.2216655,-0.954991 1.3472683,-2.493877 3.0340498,-4.854013 4.5424828,-7.254186 l 3.130262,1.967274"
       style="fill:#ffffff;stroke:none;stroke-width:0.0972923;fill-opacity:1" />
    <path
       id="path847-8"
       d="M 16.469634,17.200845 12.021366,14.405248 19.217444,2.9550745 c 1.283885,1.6101525 1.415259,3.6330819 1.048212,5.5999571 -0.583478,3.1261934 -2.12162,5.9815414 -3.796022,8.6458134"
       style="fill:#ffffff;stroke:none;stroke-width:0.0972923;fill-opacity:1" />
    <path
       style="fill:#ff8080;fill-opacity:1;stroke:none;stroke-width:0.0972923"
       d="m 12.527432,16.784396 c 0.555585,0.303872 1.235547,0.308492 1.758901,0.659627 1.037905,0.696308 1.694665,2.275776 2.345266,3.310989 0.465673,0.740965 0.920735,1.490097 1.400604,2.222027 0.2284,0.348508 0.489379,0.76537 0.906183,0.905612 0.576818,0.194121 1.347579,-0.27132 1.483449,-0.856348 0.07809,-0.336699 -0.06469,-0.664441 -0.221665,-0.954991 -1.347268,-2.493877 -3.03405,-4.854013 -4.542483,-7.254186 L 12.527425,16.7844"
       id="path851-3-9" />
    <path
       style="fill:#ff8080;fill-opacity:1;stroke:none;stroke-width:0.0972923"
       d="M 10.950572,17.200845 15.39884,14.405248 8.2027621,2.9550739 c -1.283885,1.6101525 -1.415259,3.6330819 -1.048212,5.599957 0.583478,3.1261941 2.12162,5.9815421 3.7960219,8.6458141"
       id="path847-8-6" />
  </g>
</svg>
