<svg
   xmlns="http://www.w3.org/2000/svg"
   id="svg16"
   version="1.1"
   viewBox="0 0 16 16"
   height="16"
   width="16">
  <path
     fill="#B99BF8"
     fill-opacity=".6"
     d="m 15,8 c 0,3.866 -3.134,7 -7,7 C 4.134,15 1,11.866 1,8 1,4.134 4.134,1 8,1 c 3.866,0 7,3.134 7,7"
     id="path10"
     style="fill-rule:evenodd;fill:#fbb9c5;fill-opacity:0.92000002" />
  <path
     fill="#231F20"
     fill-opacity=".7"
     d="m 6.8388597,8.9930929 c 0,-1.0335934 0.2411551,-2.075 1.538,-2.075 1.2968449,0 1.4646,1.413 1.4646,2.085 0,0.686 -0.097717,2.0460001 -1.4756,2.0460001 -1.3778827,0 -1.527,-1.022407 -1.527,-2.0560001 z m 0.0026,-2.1979 c 0.008,-0.074 0.00713,-1.0739998 -0.0026,-2.9999998 h -0.997 v 7.9998999 h 0.997 v -0.746 c 0.369531,0.497333 0.942531,0.746 1.719,0.746 1.1647035,0 2.2840003,-0.578086 2.2840003,-2.8020001 0,-2.223914 -1.3458593,-2.821 -2.2840003,-2.821 -0.6254273,0 -1.1975607,0.2077 -1.7164,0.6231 z"
     id="path12"
     style="fill-rule:evenodd" />
</svg>
