<?xml version="1.0" encoding="UTF-8" standalone="no"?>
<svg
        xmlns="http://www.w3.org/2000/svg"
        width="13"
        height="13"
        viewBox="0 0 26.458333 26.458334"
        version="1.1"
        id="svg8">
    <g
            id="layer1">
        <path
                id="path851-3"
                d="m 14.846338,17.403339 c -0.688362,0.376494 -1.530826,0.382217 -2.179254,0.817269 -1.28595,0.862716 -2.099667,2.819655 -2.9057522,4.102269 -0.576964,0.918047 -1.1407779,1.84621 -1.7353301,2.753062 C 7.7430177,25.507736 7.4196679,26.024222 6.9032539,26.19798 6.1885848,26.438493 5.2336225,25.861818 5.0652806,25.136977 4.968532,24.719811 5.1454288,24.313744 5.339921,23.953755 7.0091679,20.863876 9.0990665,17.9397 10.967995,14.965919 l 3.878352,2.437425"
                style="fill:#AFB1B3;stroke:none;stroke-width:0.120544"/>
        <path
                id="path847-8"
                d="M 16.800046,17.919315 11.288703,14.455608 20.204545,0.269 c 1.590716,1.9949568 1.753487,4.5013385 1.29872,6.9382699 -0.722922,3.8733111 -2.628659,7.4110471 -4.703219,10.7120451"
                style="fill:#AFB1B3;stroke:none;stroke-width:0.120544"/>
        <rect
                y="14.984775"
                x="11.915712"
                height="2.4185636"
                width="2.4993026"
                id="rect1012"
                style="fill:#AFB1B3;stroke-width:0.0252013"/>
        <path
                style="fill:#CCCDCE;stroke:none;stroke-width:0.120544"
                d="m 11.915712,17.403339 c 0.688362,0.376494 1.530826,0.382217 2.179254,0.817269 1.28595,0.862716 2.099667,2.819655 2.905752,4.102269 0.576964,0.918047 1.140778,1.84621 1.73533,2.753062 0.282985,0.431797 0.606334,0.948283 1.122748,1.122041 0.714669,0.240513 1.669632,-0.336162 1.837974,-1.061003 0.09675,-0.417166 -0.08015,-0.823233 -0.274641,-1.183222 -1.669247,-3.089879 -3.759145,-6.014055 -5.628074,-8.987836 l -3.878352,2.437425"
                id="path851-3-8"/>
        <path
                style="fill:#CCCDCE;stroke:none;stroke-width:0.120544"
                d="M 9.9620042,17.919315 15.473347,14.455608 6.5575052,0.26900003 c -1.590716,1.99495677 -1.753487,4.50133847 -1.29872,6.93827007 0.722922,3.8733109 2.628659,7.4110469 4.703219,10.7120449"
                id="path847-8-1"/>
    </g>
</svg>
